<svg xmlns="http://www.w3.org/2000/svg" version="1.1" xmlns:xlink="http://www.w3.org/1999/xlink" xmlns:svgjs="http://svgjs.dev/svgjs" width="1500" height="170" viewBox="0 0 1500 170"><g transform="matrix(1,0,0,1,-0.9090909090911055,1.533136236460507)"><svg viewBox="0 0 396 45" data-background-color="#5f237c" preserveAspectRatio="xMidYMid meet" height="170" width="1500" xmlns="http://www.w3.org/2000/svg" xmlns:xlink="http://www.w3.org/1999/xlink"><g id="tight-bounds" transform="matrix(1,0,0,1,0.24000000000003752,0.4379182821350014)"><svg viewBox="0 0 395.5199999999999 44.12416343573001" height="44.12416343573001" width="395.5199999999999"><g><svg viewBox="0 0 667.8825802765598 74.5089" height="44.12416343573001" width="395.5199999999999"><g><svg viewBox="0 0 667.8825802765598 74.5089" height="74.5089" width="667.8825802765598"><g id="textblocktransform"><svg viewBox="0 0 667.8825802765598 74.5089" height="74.5089" width="667.8825802765598" id="textblock"><g><svg viewBox="0 0 667.8825802765598 74.5089" height="74.5089" width="667.8825802765598"><g><svg><g></g><g></g></svg></g><g><svg><g></g><g><svg></svg></g></svg></g><g id="text-0"><svg viewBox="0 0 667.8825802765598 74.5089" height="74.5089" width="667.8825802765598"><g transform="matrix(1,0,0,1,0,14.229449999999996)"><svg width="202.95" viewBox="2.7 -35.6 202.94 46.05" height="46.050000000000004" data-palette-color="#ffffff"><path d="M7.7 0L2.7 0 4.7-32.85 8.4-32.85 6.7-10.2Q6.5-7.95 6.28-6 6.05-4.05 5.95-3.35L5.95-3.35 6.15-3.35Q6.3-3.7 6.68-4.7 7.05-5.7 7.5-6.83 7.95-7.95 8.38-8.95 8.8-9.95 8.95-10.3L8.95-10.3 14.9-23.7 18.2-23.7 19.15-12.5Q19.2-11.65 19.3-10.45 19.4-9.25 19.5-8 19.6-6.75 19.68-5.58 19.75-4.4 19.75-3.55L19.75-3.55 20.05-3.55Q20.1-3.9 20.33-4.88 20.55-5.85 20.83-6.98 21.1-8.1 21.35-9.08 21.6-10.05 21.7-10.45L21.7-10.45 28.4-32.85 32.1-32.85 21.9 0 17.1 0 16.2-13.3Q16.1-14.75 16-16.57 15.9-18.4 15.9-19.55L15.9-19.55 15.65-19.55Q15.25-18.35 14.65-16.55 14.05-14.75 13.4-13.3L13.4-13.3 7.7 0ZM47.35 0.6L47.35 0.6Q44.45 0.6 42.62-0.95 40.8-2.5 40.8-5.5L40.8-5.5Q40.8-6.65 41.2-8.15L41.2-8.15 44.1-21.2 35.2-21.2 35.85-24.3 48.55-24.3 44.9-7.8Q44.8-7.35 44.75-6.98 44.7-6.6 44.7-6.2L44.7-6.2Q44.7-4.3 45.75-3.45 46.8-2.6 48.45-2.6L48.45-2.6Q49.6-2.6 50.7-2.95 51.8-3.3 53.1-3.9L53.1-3.9 54-1Q52.45-0.3 50.9 0.15 49.35 0.6 47.35 0.6ZM47.15-29.45L47.15-29.45Q45.95-29.45 45.12-30.13 44.3-30.8 44.3-32.1L44.3-32.1Q44.3-33.55 45.32-34.55 46.35-35.55 47.75-35.55L47.75-35.55Q49.05-35.55 49.85-34.88 50.65-34.2 50.65-32.9L50.65-32.9Q50.65-31.45 49.62-30.45 48.6-29.45 47.15-29.45ZM76.25 0.6L76.25 0.6Q73.4 0.6 71.57-1.03 69.75-2.65 69.75-5.85L69.75-5.85Q69.75-7.1 70.09-8.55L70.09-8.55 75.15-32.5 67.05-32.5 67.7-35.6 79.55-35.6 73.84-8.4Q73.59-7.15 73.59-6.2L73.59-6.2Q73.59-4.3 74.59-3.45 75.59-2.6 77.3-2.6L77.3-2.6Q78.5-2.6 79.62-2.93 80.75-3.25 82.05-3.95L82.05-3.95 83-1Q81.4-0.2 79.72 0.2 78.05 0.6 76.25 0.6ZM106.24 0.6L106.24 0.6Q103.39 0.6 101.57-1.03 99.74-2.65 99.74-5.85L99.74-5.85Q99.74-7.1 100.09-8.55L100.09-8.55 105.14-32.5 97.04-32.5 97.69-35.6 109.54-35.6 103.84-8.4Q103.59-7.15 103.59-6.2L103.59-6.2Q103.59-4.3 104.59-3.45 105.59-2.6 107.29-2.6L107.29-2.6Q108.49-2.6 109.62-2.93 110.74-3.25 112.04-3.95L112.04-3.95 112.99-1Q111.39-0.2 109.72 0.2 108.04 0.6 106.24 0.6ZM121.64 10.45L121.64 10.45Q119.29 10.45 117.79 9.55L117.79 9.55 118.99 6.8Q119.59 7.1 120.34 7.3 121.09 7.5 121.89 7.5L121.89 7.5Q122.99 7.5 123.92 7.23 124.84 6.95 125.64 6.35 126.44 5.75 127.22 4.8 127.99 3.85 128.89 2.5L128.89 2.5 130.39 0.1 124.34-24.3 128.04-24.3 131.24-10.7Q131.59-9.1 131.99-7.03 132.39-4.95 132.69-3.3L132.69-3.3 132.89-3.3Q133.74-4.95 134.89-7.03 136.04-9.1 136.99-10.7L136.99-10.7 145.14-24.3 149.14-24.3 132.59 2.6Q131.39 4.6 130.22 6.08 129.04 7.55 127.77 8.53 126.49 9.5 124.99 9.98 123.49 10.45 121.64 10.45ZM166.89-17.9L164.29-17.9 165.34-29.05 166.34-34.35 171.49-34.35 170.39-29.05 166.89-17.9ZM193.49 0.6L193.49 0.6Q190.34 0.6 187.41-0.6 184.49-1.8 182.74-3.85L182.74-3.85 184.94-6.3Q186.74-4.25 189.14-3.33 191.54-2.4 194.19-2.4L194.19-2.4Q196.74-2.4 198.41-3.3 200.09-4.2 200.09-6.25L200.09-6.25Q200.09-8 198.41-8.95 196.74-9.9 193.69-10.9L193.69-10.9Q189.89-12.2 188.14-13.83 186.39-15.45 186.39-18L186.39-18Q186.39-19.75 187.11-21.05 187.84-22.35 189.09-23.2 190.34-24.05 191.99-24.48 193.64-24.9 195.49-24.9L195.49-24.9Q198.99-24.9 201.54-23.7 204.09-22.5 205.64-20.95L205.64-20.95 203.49-18.6Q201.99-19.9 199.89-20.9 197.79-21.9 195.09-21.9L195.09-21.9Q192.69-21.9 191.36-20.98 190.04-20.05 190.04-18.45L190.04-18.45Q190.04-16.75 191.56-15.8 193.09-14.85 196.04-13.85L196.04-13.85Q197.74-13.25 199.16-12.63 200.59-12 201.59-11.2 202.59-10.4 203.16-9.33 203.74-8.25 203.74-6.75L203.74-6.75Q203.74-4.8 202.94-3.4 202.14-2 200.74-1.1 199.34-0.2 197.49 0.2 195.64 0.6 193.49 0.6Z" opacity="1" transform="matrix(1,0,0,1,0,0)" fill="#ffffff" class="undefined-tk-0"></path></svg></g><g><svg xmlns="http://www.w3.org/2000/svg" xmlns:xlink="http://www.w3.org/1999/xlink" version="1.1" x="220.5411" y="0" viewBox="17.5 18.666289721805818 62.00200003718042 63.500710278194184" enable-background="new 0 0 100 100" xml:space="preserve" height="74.5089" width="72.75038027655972" class="icon-dxe-0" data-fill-palette-color="accent" id="dxe-0"><path fill="#ffffff" d="M78.05 19.583A4 4 0 0 0 74.748 18.738L37.414 25.905A4 4 0 0 0 34.168 29.833V58.301A12.2 12.2 0 0 0 29.834 57.499C23.033 57.499 17.5 63.032 17.5 69.833S23.033 82.167 29.834 82.167 42.168 76.634 42.168 69.833V33.139L71.502 27.508V51.135A12.2 12.2 0 0 0 67.168 50.333C60.367 50.333 54.834 55.866 54.834 62.667S60.367 75.001 67.168 75.001 79.502 69.468 79.502 62.667V22.667A4 4 0 0 0 78.05 19.583M29.834 74.168C27.444 74.168 25.5 72.224 25.5 69.834S27.444 65.5 29.834 65.5 34.168 67.444 34.168 69.834 32.224 74.168 29.834 74.168M67.168 67.001C64.778 67.001 62.834 65.057 62.834 62.667S64.778 58.333 67.168 58.333 71.502 60.277 71.502 62.667 69.558 67.001 67.168 67.001" data-fill-palette-color="accent"></path></svg></g><g transform="matrix(1,0,0,1,310.8825802765597,14.229449999999996)"><svg width="357" viewBox="0.75 -35.6 356.97 46.05" height="46.050000000000004" data-palette-color="#ffffff"><path d="M4.3 0L0.75 0 7.3-32.8 12-32.8 13.9-17.95 14.2-13.1 14.4-13.1 16.6-17.9 24.8-32.8 29.45-32.8 22.95 0 19.3 0 23.2-19.3Q23.4-20.25 23.7-21.43 24-22.6 24.33-23.83 24.65-25.05 25-26.23 25.35-27.4 25.65-28.4L25.65-28.4 25.45-28.4Q25.25-28 24.85-27.2 24.45-26.4 24-25.5 23.55-24.6 23.05-23.68 22.55-22.75 22.2-22.05L22.2-22.05 15.2-8.9 12-8.9 10.3-21.8Q10.25-22.2 10.15-23.13 10.05-24.05 9.95-25.08 9.85-26.1 9.75-27.03 9.65-27.95 9.6-28.4L9.6-28.4 9.4-28.4Q9.3-27.3 9.18-26.08 9.05-24.85 8.9-23.68 8.75-22.5 8.6-21.45 8.45-20.4 8.3-19.7L8.3-19.7 4.3 0ZM43.5 0.6L43.5 0.6Q38.75 0.6 35.95-2.08 33.15-4.75 33.15-9.9L33.15-9.9Q33.15-13.2 34.27-15.95 35.4-18.7 37.32-20.68 39.25-22.65 41.75-23.78 44.25-24.9 47-24.9L47-24.9Q49.25-24.9 50.97-24.2 52.7-23.5 53.87-22.25 55.05-21 55.65-19.28 56.25-17.55 56.25-15.55L56.25-15.55Q56.25-14.25 56.02-12.98 55.8-11.7 55.6-11.2L55.6-11.2 37-11.2Q36.95-10.95 36.95-10.68 36.95-10.4 36.95-10.1L36.95-10.1Q36.95-6.4 38.95-4.42 40.95-2.45 44.25-2.45L44.25-2.45Q46.65-2.45 48.75-3.35 50.85-4.25 52.55-5.6L52.55-5.6 54-3Q52.15-1.55 49.42-0.48 46.7 0.6 43.5 0.6ZM46.8-21.85L46.8-21.85Q45.4-21.85 44-21.33 42.6-20.8 41.37-19.8 40.15-18.8 39.15-17.38 38.15-15.95 37.6-14.2L37.6-14.2 52.5-14.2Q52.65-14.95 52.65-15.7L52.65-15.7Q52.65-18.55 51.07-20.2 49.5-21.85 46.8-21.85ZM70.9 0.6L70.9 0.6Q67.15 0.6 64.87-1.78 62.6-4.15 62.6-8.7L62.6-8.7Q62.6-11.95 63.65-14.9 64.7-17.85 66.5-20.08 68.3-22.3 70.72-23.6 73.15-24.9 75.95-24.9L75.95-24.9Q78.55-24.9 80.4-23.93 82.25-22.95 83.3-21.35L83.3-21.35 83.45-21.35 84.25-26.1 86.15-35.6 90-35.6 82.8 0 79.65 0 80.05-3.7 79.84-3.7Q77.95-1.75 75.62-0.58 73.3 0.6 70.9 0.6ZM72.09-2.6L72.09-2.6Q74.09-2.6 76.27-3.8 78.45-5 80.45-7.3L80.45-7.3 82.65-18.1Q81.4-20 79.8-20.85 78.2-21.7 76.45-21.7L76.45-21.7Q74.34-21.7 72.55-20.68 70.75-19.65 69.42-17.93 68.09-16.2 67.32-13.98 66.55-11.75 66.55-9.3L66.55-9.3Q66.55-5.85 68.05-4.23 69.55-2.6 72.09-2.6ZM107.34 0.6L107.34 0.6Q104.44 0.6 102.62-0.95 100.79-2.5 100.79-5.5L100.79-5.5Q100.79-6.65 101.19-8.15L101.19-8.15 104.09-21.2 95.19-21.2 95.84-24.3 108.54-24.3 104.89-7.8Q104.79-7.35 104.74-6.98 104.69-6.6 104.69-6.2L104.69-6.2Q104.69-4.3 105.74-3.45 106.79-2.6 108.44-2.6L108.44-2.6Q109.59-2.6 110.69-2.95 111.79-3.3 113.09-3.9L113.09-3.9 113.99-1Q112.44-0.3 110.89 0.15 109.34 0.6 107.34 0.6ZM107.14-29.45L107.14-29.45Q105.94-29.45 105.12-30.13 104.29-30.8 104.29-32.1L104.29-32.1Q104.29-33.55 105.32-34.55 106.34-35.55 107.74-35.55L107.74-35.55Q109.04-35.55 109.84-34.88 110.64-34.2 110.64-32.9L110.64-32.9Q110.64-31.45 109.62-30.45 108.59-29.45 107.14-29.45ZM130.94 0.6L130.94 0.6Q127.14 0.6 124.87-1.78 122.59-4.15 122.59-8.7L122.59-8.7Q122.59-11.95 123.64-14.9 124.69-17.85 126.49-20.08 128.29-22.3 130.72-23.6 133.14-24.9 135.94-24.9L135.94-24.9Q138.54-24.9 140.47-23.9 142.39-22.9 143.39-21.25L143.39-21.25 143.59-21.25 144.54-24.3 147.64-24.3 142.79 0 139.64 0 140.04-3.7 139.84-3.7Q137.94-1.75 135.62-0.58 133.29 0.6 130.94 0.6ZM132.09-2.6L132.09-2.6Q134.09-2.6 136.27-3.8 138.44-5 140.44-7.3L140.44-7.3 142.69-18.1Q141.44-20 139.81-20.85 138.19-21.7 136.44-21.7L136.44-21.7Q134.34-21.7 132.54-20.68 130.74-19.65 129.42-17.93 128.09-16.2 127.32-13.98 126.54-11.75 126.54-9.3L126.54-9.3Q126.54-5.85 128.04-4.23 129.54-2.6 132.09-2.6ZM186.44 0L182.59 0 189.14-32.8 198.29-32.8Q200.59-32.8 202.51-32.35 204.44-31.9 205.79-30.93 207.14-29.95 207.89-28.45 208.64-26.95 208.64-24.8L208.64-24.8Q208.64-21.8 207.59-19.6 206.54-17.4 204.64-15.98 202.74-14.55 200.11-13.88 197.49-13.2 194.34-13.2L194.34-13.2 189.09-13.2 186.44 0ZM192.34-29.7L189.74-16.35 194.34-16.35Q199.49-16.35 202.11-18.35 204.74-20.35 204.74-24.3L204.74-24.3Q204.74-27.15 202.86-28.43 200.99-29.7 197.29-29.7L197.29-29.7 192.34-29.7ZM226.23 0.6L226.23 0.6Q223.38 0.6 221.56-1.03 219.73-2.65 219.73-5.85L219.73-5.85Q219.73-7.1 220.08-8.55L220.08-8.55 225.13-32.5 217.03-32.5 217.68-35.6 229.53-35.6 223.83-8.4Q223.58-7.15 223.58-6.2L223.58-6.2Q223.58-4.3 224.58-3.45 225.58-2.6 227.28-2.6L227.28-2.6Q228.48-2.6 229.61-2.93 230.73-3.25 232.03-3.95L232.03-3.95 232.98-1Q231.38-0.2 229.71 0.2 228.03 0.6 226.23 0.6ZM250.93 0.6L250.93 0.6Q247.13 0.6 244.86-1.78 242.58-4.15 242.58-8.7L242.58-8.7Q242.58-11.95 243.63-14.9 244.68-17.85 246.48-20.08 248.28-22.3 250.71-23.6 253.13-24.9 255.93-24.9L255.93-24.9Q258.53-24.9 260.46-23.9 262.38-22.9 263.38-21.25L263.38-21.25 263.58-21.25 264.53-24.3 267.63-24.3 262.78 0 259.63 0 260.03-3.7 259.83-3.7Q257.93-1.75 255.61-0.58 253.28 0.6 250.93 0.6ZM252.08-2.6L252.08-2.6Q254.08-2.6 256.25-3.8 258.43-5 260.43-7.3L260.43-7.3 262.68-18.1Q261.43-20 259.81-20.85 258.18-21.7 256.43-21.7L256.43-21.7Q254.33-21.7 252.53-20.68 250.73-19.65 249.41-17.93 248.08-16.2 247.31-13.98 246.53-11.75 246.53-9.3L246.53-9.3Q246.53-5.85 248.03-4.23 249.53-2.6 252.08-2.6ZM271.63 10.45L271.63 10.45Q269.28 10.45 267.78 9.55L267.78 9.55 268.98 6.8Q269.58 7.1 270.33 7.3 271.08 7.5 271.88 7.5L271.88 7.5Q272.98 7.5 273.9 7.23 274.83 6.95 275.63 6.35 276.43 5.75 277.2 4.8 277.98 3.85 278.88 2.5L278.88 2.5 280.38 0.1 274.33-24.3 278.03-24.3 281.23-10.7Q281.58-9.1 281.98-7.03 282.38-4.95 282.68-3.3L282.68-3.3 282.88-3.3Q283.73-4.95 284.88-7.03 286.03-9.1 286.98-10.7L286.98-10.7 295.13-24.3 299.13-24.3 282.58 2.6Q281.38 4.6 280.2 6.08 279.03 7.55 277.75 8.53 276.48 9.5 274.98 9.98 273.48 10.45 271.63 10.45ZM313.48 0.6L313.48 0.6Q308.73 0.6 305.93-2.08 303.13-4.75 303.13-9.9L303.13-9.9Q303.13-13.2 304.25-15.95 305.38-18.7 307.3-20.68 309.23-22.65 311.73-23.78 314.23-24.9 316.98-24.9L316.98-24.9Q319.23-24.9 320.95-24.2 322.68-23.5 323.85-22.25 325.03-21 325.63-19.28 326.23-17.55 326.23-15.55L326.23-15.55Q326.23-14.25 326-12.98 325.78-11.7 325.58-11.2L325.58-11.2 306.98-11.2Q306.93-10.95 306.93-10.68 306.93-10.4 306.93-10.1L306.93-10.1Q306.93-6.4 308.93-4.42 310.93-2.45 314.23-2.45L314.23-2.45Q316.63-2.45 318.73-3.35 320.83-4.25 322.53-5.6L322.53-5.6 323.98-3Q322.13-1.55 319.4-0.48 316.68 0.6 313.48 0.6ZM316.78-21.85L316.78-21.85Q315.38-21.85 313.98-21.33 312.58-20.8 311.35-19.8 310.13-18.8 309.13-17.38 308.13-15.95 307.58-14.2L307.58-14.2 322.48-14.2Q322.63-14.95 322.63-15.7L322.63-15.7Q322.63-18.55 321.05-20.2 319.48-21.85 316.78-21.85ZM338.62 0L334.82 0 339.67-24.3 342.82-24.3 341.77-17.35 341.97-17.35Q342.97-18.9 344.2-20.28 345.42-21.65 346.82-22.68 348.22-23.7 349.72-24.3 351.22-24.9 352.82-24.9L352.82-24.9Q355.92-24.9 357.72-23.65L357.72-23.65 356.22-20.35Q355.27-20.95 354.32-21.18 353.37-21.4 352.17-21.4L352.17-21.4Q349.32-21.4 346.52-18.98 343.72-16.55 341.17-12.65L341.17-12.65 338.62 0Z" opacity="1" transform="matrix(1,0,0,1,0,0)" fill="#ffffff" class="undefined-tk-1"></path></svg></g></svg></g></svg></g></svg></g></svg></g></svg></g><defs></defs></svg><rect width="395.5199999999999" height="44.12416343573001" fill="none" stroke="none" visibility="hidden"></rect></g></svg></g></svg>